<svg id="Layer_1" data-name="Layer 1" xmlns="http://www.w3.org/2000/svg" viewBox="0 0 286.05 286.05"><defs><style>.cls-1{fill:#ccbb14;}</style></defs><title>mediumdanger</title><path class="cls-1" d="M143,0a143,143,0,1,0,143,143A143,143,0,0,0,143,0Zm0,259.24A116.21,116.21,0,1,1,259.24,143,116.2,116.2,0,0,1,143,259.24Zm0-196.51c-10.25,0-18,5.34-18,14v79.2c0,8.64,7.75,14,18,14,10,0,18-5.55,18-14V76.71C161,68.28,153,62.73,143,62.73Zm0,125a17.86,17.86,0,1,0,17.84,17.86A17.88,17.88,0,0,0,143,187.72Z"/></svg>