<svg id="Layer_1" data-name="Layer 1" xmlns="http://www.w3.org/2000/svg" viewBox="0 0 24 10.42"><defs><style>.cls-1{fill:none;}.cls-2{fill:#fff;}</style></defs><title>newCar</title><path class="cls-1" d="M0,7.49H24V17.91H0Z" transform="translate(0 -7.49)"/><path class="cls-2" d="M21.93,9.15a.82.82,0,0,0-.78-.55H15.09a.83.83,0,0,0-.78.55l-1.14,3.3v4.4a.54.54,0,0,0,.55.55h.55a.55.55,0,0,0,.55-.55V16.3h6.61v.55a.54.54,0,0,0,.55.55h.55a.55.55,0,0,0,.55-.55v-4.4Zm-6.84,5.5a.83.83,0,1,1,.83-.82A.82.82,0,0,1,15.09,14.65Zm6.06,0a.83.83,0,1,1,.83-.82A.83.83,0,0,1,21.15,14.65ZM14.27,11.9l.82-2.48h6.06L22,11.9Z" transform="translate(0 -7.49)"/><path class="cls-2" d="M5,13l.84.84a2.29,2.29,0,0,0,0-1.68Zm1.91-1.92-.45.46A3.11,3.11,0,0,1,6.79,13a3.21,3.21,0,0,1-.35,1.46l.43.44A3.63,3.63,0,0,0,7.43,13,3.58,3.58,0,0,0,6.89,11.07Zm-1.38.36L3.44,9.36H3.08v2.75L1.41,10.45.9,11l2,2-2,2,.51.51,1.67-1.67v2.75h.36l2.07-2.07L4,13ZM3.8,10.75l.68.68-.68.68Zm.68,3.79-.68.69V13.86Z" transform="translate(0 -7.49)"/></svg>