<?xml version="1.0" encoding="utf-8"?>
<!-- Generator: Adobe Illustrator 23.0.2, SVG Export Plug-In . SVG Version: 6.00 Build 0)  -->
<svg version="1.1" id="Ebene_1" xmlns="http://www.w3.org/2000/svg" xmlns:xlink="http://www.w3.org/1999/xlink" x="0px" y="0px"
	 viewBox="0 0 24 24" style="enable-background:new 0 0 24 24;" xml:space="preserve">
<path d="M17.5,2C18.3,2,19,2.7,19,3.5V11c0,1.6,0.5,2.3,1.4,3.1c1,0.9,1.6,2.1,1.6,3.4c0,2.5-2,4.5-4.5,4.5S13,20,13,17.5
	c0-1.3,0.6-2.6,1.6-3.4c0.9-0.8,1.4-1.5,1.4-3.1V3.5C16,2.7,16.7,2,17.5,2z M17.5,0C15.6,0,14,1.6,14,3.5V11c0,0.6-0.3,1.1-0.7,1.5
	c-1.4,1.2-2.3,3-2.3,4.9c0,3.6,2.9,6.5,6.5,6.5s6.5-2.9,6.5-6.5c0-2-0.9-3.8-2.3-4.9C21.3,12.2,21,11.6,21,11V3.5
	C21,1.6,19.4,0,17.5,0z M19.6,14.7c-1-0.9-1.6-1.7-1.6-3.2V5h-1v6.5c0,1.5-0.6,2.3-1.6,3.2c-0.8,0.7-1.4,1.6-1.4,2.8
	c0,1.9,1.6,3.5,3.5,3.5s3.5-1.6,3.5-3.5C21,16.4,20.4,15.4,19.6,14.7z M6.5,1.6C4.4,4.7,3,6.7,3,8.6C3,10.5,4.6,12,6.5,12
	S10,10.5,10,8.6C10,6.7,8.6,4.7,6.5,1.6z"/>
</svg>
