<?xml version="1.0" encoding="UTF-8"?>
<svg xmlns="http://www.w3.org/2000/svg" xmlns:xlink="http://www.w3.org/1999/xlink" width="50pt" height="50pt" viewBox="0 0 50 50" version="1.1">
<g id="surface1">
<path style=" stroke:none;fill-rule:nonzero;fill:rgb(0.392157%,0%,0.784314%);fill-opacity:1;" d="M 24.714844 0 L 2.949219 0 C 1.691406 0 0.671875 1.019531 0.671875 2.28125 L 0.671875 48.796875 L 26.992188 48.796875 L 26.992188 2.28125 C 26.992188 1.019531 25.976562 0 24.714844 0 Z M 23.714844 17.390625 L 3.953125 17.390625 L 3.953125 4.445312 L 23.714844 4.445312 Z M 37.453125 49.710938 C 32.050781 49.710938 28.773438 45.992188 28.464844 39.507812 C 28.332031 36.953125 28.972656 34.140625 29.652344 31.160156 C 30.160156 28.921875 30.6875 26.609375 30.9375 24.234375 C 31.1875 21.847656 30.8125 21.039062 30.566406 20.765625 C 30.109375 20.257812 28.765625 20.257812 27.46875 20.257812 L 26.832031 20.257812 L 26.832031 17.097656 L 27.46875 17.097656 C 29.367188 17.097656 31.519531 17.097656 32.917969 18.652344 C 34.011719 19.863281 34.378906 21.742188 34.085938 24.5625 C 33.816406 27.121094 33.269531 29.535156 32.738281 31.867188 C 32.113281 34.625 31.519531 37.238281 31.617188 39.355469 C 31.847656 44.132812 33.8125 46.550781 37.453125 46.550781 C 41.453125 46.550781 43.484375 44.019531 43.484375 39.035156 C 43.484375 34.914062 42.203125 31.703125 41.351562 29.582031 L 41.015625 28.726562 C 40.132812 26.414062 40.015625 24.339844 39.925781 21.195312 C 39.835938 18.140625 39.871094 14.878906 40.714844 11.652344 C 41.566406 8.410156 43.316406 6.828125 46.214844 4.210938 L 46.914062 3.574219 L 49.039062 5.914062 L 48.332031 6.550781 C 45.621094 9.003906 44.386719 10.121094 43.773438 12.457031 C 43.03125 15.292969 43.007812 18.285156 43.085938 21.101562 C 43.171875 24.167969 43.292969 25.8125 43.972656 27.597656 L 44.289062 28.402344 C 45.175781 30.609375 46.644531 34.296875 46.644531 39.03125 C 46.640625 45.71875 43.203125 49.710938 37.453125 49.710938 Z M 41.523438 21.730469 L 41.441406 18.570312 C 41.441406 18.570312 43.890625 18.503906 45.28125 18.488281 C 45.3125 17.929688 45.3125 17.054688 45.3125 16.136719 L 45.3125 15.664062 C 45.3125 11.882812 44.71875 11.382812 44.039062 10.800781 C 43.792969 10.589844 43.546875 10.371094 43.304688 10.109375 L 45.628906 7.972656 C 45.777344 8.136719 45.941406 8.265625 46.09375 8.394531 C 47.441406 9.546875 48.472656 10.8125 48.472656 15.660156 L 48.472656 16.132812 C 48.472656 17.90625 48.472656 18.882812 48.316406 19.628906 C 48.042969 20.90625 47.164062 21.644531 45.902344 21.644531 C 44.875 21.644531 41.527344 21.730469 41.523438 21.730469 Z M 41.523438 21.730469 "/>
</g>
</svg>
